<svg width="144" height="32" viewBox="0 0 144 32" fill="none" xmlns="http://www.w3.org/2000/svg">
    <path d="M1.32812 5.33398H30.6615V8.00065H1.32812V5.33398ZM1.32812 24.0007H30.6615V26.6673H1.32812V24.0007ZM26.1575 19.886L25.9255 18.726H23.3268L22.9135 19.8767L20.8308 19.882C22.1703 16.6731 23.1641 14.2953 23.8121 12.7487C23.9801 12.3442 24.2846 12.1424 24.7255 12.1433C25.0641 12.146 25.6175 12.146 26.3855 12.1433L27.9948 19.8833L26.1575 19.886ZM23.9121 17.1367H25.5868L24.9601 14.23L23.9121 17.1367ZM10.4908 12.142L12.5841 12.1447L9.34813 19.886L7.22813 19.8847C6.51168 17.1238 5.98546 15.0771 5.64946 13.7447C5.54679 13.3353 5.34279 13.05 4.94812 12.9153C4.5979 12.7944 4.01346 12.6082 3.19479 12.3567V12.1433H6.54012C7.11879 12.1433 7.45613 12.4233 7.56546 12.9967L8.39213 17.382L10.4908 12.142ZM15.4601 12.1447L13.8068 19.8847L11.8135 19.882L13.4668 12.142L15.4601 12.1447ZM19.5028 12.0007C20.0975 12.0007 20.8495 12.1847 21.2815 12.3567L20.9321 13.962C20.5415 13.8047 19.8988 13.5927 19.3588 13.602C18.5721 13.614 18.0868 13.9433 18.0868 14.2593C18.0868 14.7713 18.9295 15.03 19.7988 15.5913C20.7895 16.2313 20.9188 16.8047 20.9081 17.4287C20.8935 18.7233 19.7988 20.0007 17.4881 20.0007C16.4335 19.9847 16.0535 19.8967 15.1948 19.5927L15.5575 17.918C16.4321 18.2833 16.8041 18.3993 17.5508 18.3993C18.2375 18.3993 18.8255 18.1233 18.8308 17.642C18.8335 17.2993 18.6241 17.13 17.8548 16.706C17.0855 16.282 16.0068 15.698 16.0215 14.5193C16.0388 13.0127 17.4721 12.0007 19.5028 12.0007Z"
          fill="white"/>
    <g clip-path="url(#clip0_0_1)">
        <path d="M82.829 24.5723C82.829 24.9503 82.574 25.2223 82.207 25.2223C81.829 25.2223 81.585 24.9333 81.585 24.5723C81.585 24.2113 81.829 23.9223 82.207 23.9223C82.574 23.9223 82.829 24.2113 82.829 24.5723ZM65.562 23.9223C65.167 23.9223 64.94 24.2113 64.94 24.5723C64.94 24.9333 65.168 25.2223 65.562 25.2223C65.923 25.2223 66.167 24.9503 66.167 24.5723C66.161 24.2113 65.923 23.9223 65.562 23.9223ZM72.09 23.9063C71.79 23.9063 71.606 24.1003 71.562 24.3893H72.623C72.573 24.0723 72.379 23.9063 72.09 23.9063ZM78.079 23.9223C77.701 23.9223 77.474 24.2113 77.474 24.5723C77.474 24.9333 77.702 25.2223 78.079 25.2223C78.457 25.2223 78.701 24.9503 78.701 24.5723C78.701 24.2113 78.456 23.9223 78.079 23.9223ZM83.962 25.3723C83.962 25.3893 83.979 25.4003 83.979 25.4333C83.979 25.4503 83.962 25.4613 83.962 25.4943C83.945 25.5113 83.945 25.5223 83.934 25.5383C83.917 25.5553 83.906 25.5663 83.873 25.5663C83.856 25.5833 83.845 25.5833 83.812 25.5833C83.795 25.5833 83.784 25.5833 83.751 25.5663C83.734 25.5663 83.723 25.5493 83.707 25.5383C83.69 25.5213 83.679 25.5103 83.679 25.4943C83.662 25.4663 83.662 25.4503 83.662 25.4333C83.662 25.4053 83.662 25.3893 83.679 25.3723C83.679 25.3443 83.696 25.3283 83.707 25.3113C83.724 25.2943 83.735 25.2943 83.751 25.2833C83.779 25.2663 83.795 25.2663 83.812 25.2663C83.84 25.2663 83.856 25.2663 83.873 25.2833C83.901 25.2993 83.917 25.2993 83.934 25.3113C83.951 25.3233 83.945 25.3443 83.962 25.3723ZM83.84 25.4503C83.868 25.4503 83.868 25.4333 83.884 25.4333C83.901 25.4163 83.901 25.4053 83.901 25.3893C83.901 25.3733 83.901 25.3613 83.884 25.3453C83.868 25.3453 83.856 25.3283 83.823 25.3283H83.734V25.5223H83.778V25.4443H83.795L83.856 25.5223H83.9L83.84 25.4503ZM88.001 6.27833V25.8343C88.0002 26.5414 87.719 27.2193 87.219 27.7193C86.719 28.2193 86.0411 28.5005 85.334 28.5013H58.667C57.9599 28.5005 57.282 28.2193 56.782 27.7193C56.282 27.2193 56.0008 26.5414 56 25.8343V6.27833C56.0008 5.57124 56.282 4.89334 56.782 4.39335C57.282 3.89336 57.9599 3.61212 58.667 3.61133H85.334C86.0411 3.61212 86.719 3.89336 87.219 4.39335C87.719 4.89334 88.0002 5.57124 88.001 6.27833ZM59.557 14.0333C59.557 18.2833 63.007 21.7273 67.251 21.7273C68.7625 21.7232 70.2398 21.2773 71.501 20.4443C67.451 17.1503 67.479 10.9333 71.501 7.63833C70.241 6.80269 68.7629 6.35647 67.251 6.35533C63.007 6.35033 59.557 9.79933 59.557 14.0333ZM72.001 20.0783C75.918 17.0223 75.901 11.0673 72.001 7.99533C68.101 11.0673 68.084 17.0283 72.001 20.0783ZM64.095 24.3173C64.095 23.8343 63.778 23.5173 63.278 23.5003C63.022 23.5003 62.75 23.5783 62.567 23.8613C62.434 23.6333 62.206 23.5003 61.889 23.5003C61.7737 23.4979 61.6596 23.5241 61.5569 23.5764C61.4541 23.6288 61.3659 23.7057 61.3 23.8003V23.5563H60.845V25.5953H61.3C61.3 24.5453 61.161 23.9173 61.8 23.9173C62.367 23.9173 62.256 24.4843 62.256 25.5953H62.695C62.695 24.5783 62.556 23.9173 63.195 23.9173C63.762 23.9173 63.65 24.4733 63.65 25.5953H64.106V24.3173H64.095ZM66.59 23.5563H66.151V23.8003C66.0734 23.7033 65.9743 23.6256 65.8614 23.5736C65.7486 23.5215 65.6252 23.4964 65.501 23.5003C64.929 23.5003 64.49 23.9563 64.49 24.5723C64.49 25.1943 64.929 25.6443 65.501 25.6443C65.79 25.6443 66.001 25.5383 66.151 25.3443V25.6003H66.59V23.5563ZM68.84 24.9783C68.84 24.1453 67.568 24.5223 67.568 24.1333C67.568 23.8163 68.229 23.8673 68.596 24.0723L68.779 23.7113C68.257 23.3723 67.101 23.3783 67.101 24.1673C67.101 24.9613 68.373 24.6283 68.373 25.0003C68.373 25.3503 67.623 25.3223 67.223 25.0443L67.029 25.3943C67.651 25.8163 68.84 25.7273 68.84 24.9773V24.9783ZM70.807 25.4943L70.685 25.1163C70.474 25.2323 70.007 25.3603 70.007 24.8883V23.9663H70.735V23.5553H70.007V22.9333H69.551V23.5553H69.129V23.9613H69.551V24.8893C69.551 25.8673 70.512 25.6893 70.807 25.4943ZM71.545 24.7503H73.073C73.073 23.8503 72.662 23.4943 72.106 23.4943C71.517 23.4943 71.095 23.9333 71.095 24.5663C71.095 25.7053 72.351 25.8943 72.973 25.3553L72.762 25.0223C72.329 25.3783 71.673 25.3443 71.545 24.7503ZM74.829 23.5563C74.574 23.4453 74.185 23.4563 73.985 23.8003V23.5563H73.529V25.5953H73.985V24.4453C73.985 23.8003 74.513 23.8843 74.696 23.9783L74.829 23.5563ZM75.418 24.5723C75.418 23.9383 76.063 23.7333 76.568 24.1053L76.779 23.7443C76.134 23.2393 74.962 23.5163 74.962 24.5773C74.962 25.6773 76.206 25.8993 76.779 25.4103L76.568 25.0493C76.057 25.4103 75.418 25.1943 75.418 24.5713V24.5723ZM79.123 23.5563H78.667V23.8003C78.206 23.1893 77.006 23.5343 77.006 24.5723C77.006 25.6393 78.25 25.9443 78.667 25.3443V25.6003H79.123V23.5563ZM80.995 23.5563C80.862 23.4893 80.384 23.3953 80.151 23.8003V23.5563H79.712V25.5953H80.151V24.4453C80.151 23.8343 80.651 23.8733 80.862 23.9783L80.995 23.5563ZM83.234 22.7283H82.795V23.8003C82.339 23.1953 81.134 23.5173 81.134 24.5723C81.134 25.6503 82.384 25.9383 82.795 25.3443V25.6003H83.234V22.7283ZM83.657 18.5563V18.8123H83.701V18.5563H83.806V18.5123H83.55V18.5563H83.657ZM84.023 25.4333C84.023 25.4053 84.023 25.3723 84.007 25.3443C83.99 25.3273 83.979 25.3003 83.963 25.2833C83.947 25.2663 83.919 25.2553 83.902 25.2393C83.874 25.2393 83.841 25.2223 83.813 25.2223C83.796 25.2223 83.769 25.2393 83.735 25.2393C83.7129 25.2514 83.6924 25.2662 83.674 25.2833C83.646 25.2993 83.63 25.3273 83.63 25.3443C83.613 25.3723 83.613 25.4053 83.613 25.4333C83.613 25.4503 83.613 25.4773 83.63 25.5113C83.63 25.5283 83.647 25.5553 83.674 25.5723C83.6914 25.5907 83.7121 25.6056 83.735 25.6163C83.763 25.6323 83.796 25.6323 83.813 25.6323C83.841 25.6323 83.874 25.6323 83.902 25.6163C83.919 25.5993 83.946 25.5883 83.963 25.5723C83.98 25.5563 83.991 25.5283 84.007 25.5113C84.023 25.4783 84.023 25.4503 84.023 25.4333ZM84.201 18.5063H84.123L84.034 18.7003L83.945 18.5063H83.867V18.8063H83.911V18.5783L84 18.7723H84.061L84.139 18.5783V18.8063H84.2L84.201 18.5063ZM84.445 14.0333C84.445 9.79933 80.995 6.35033 76.751 6.35033C75.2395 6.35441 73.7622 6.80038 72.501 7.63333C76.507 10.9283 76.568 17.1613 72.501 20.4393C73.7617 21.2733 75.2394 21.7194 76.751 21.7223C80.995 21.7283 84.445 18.2833 84.445 14.0333Z"
              fill="white"/>
    </g>
    <g clip-path="url(#clip1_0_1)">
        <path d="M122.351 16.1217C122.351 16.7997 121.812 17.3157 121.129 17.3157C120.618 17.3157 120.24 17.0267 120.24 16.4827C120.24 15.8047 120.768 15.2607 121.446 15.2607C121.963 15.2607 122.351 15.5777 122.351 16.1217ZM116.473 13.4277H116.212C116.129 13.4277 116.045 13.4837 116.034 13.5777L115.795 15.0617L116.251 15.0447C116.862 15.0447 117.334 14.9617 117.445 14.2557C117.573 13.5107 117.101 13.4277 116.473 13.4277ZM132.251 13.4277H132.001C131.901 13.4277 131.834 13.4837 131.823 13.5777L131.59 15.0617L132.034 15.0447C132.756 15.0447 133.256 14.8777 133.256 14.0447C133.25 13.4557 132.724 13.4277 132.251 13.4277ZM144.001 6.22169V25.7777C144 26.4848 143.719 27.1627 143.219 27.6627C142.719 28.1627 142.041 28.4439 141.334 28.4447H114.667C113.96 28.4439 113.282 28.1627 112.782 27.6627C112.282 27.1627 112.001 26.4848 112 25.7777V6.22169C112.001 5.5146 112.282 4.8367 112.782 4.33671C113.282 3.83672 113.96 3.55548 114.667 3.55469H141.334C142.041 3.55548 142.719 3.83672 143.219 4.33671C143.719 4.8367 144 5.5146 144.001 6.22169ZM119.129 13.7437C119.129 12.5767 118.229 12.1877 117.201 12.1877H114.979C114.907 12.1882 114.838 12.2151 114.785 12.2632C114.732 12.3113 114.698 12.3773 114.69 12.4487L113.779 18.1207C113.762 18.2317 113.846 18.3427 113.957 18.3427H115.013C115.163 18.3427 115.302 18.1817 115.319 18.0257L115.569 16.5477C115.625 16.1477 116.302 16.2867 116.569 16.2867C118.158 16.2867 119.13 15.3427 119.13 13.7427L119.129 13.7437ZM123.807 14.2327H122.751C122.54 14.2327 122.529 14.5387 122.518 14.6887C122.196 14.2167 121.729 14.1327 121.201 14.1327C119.84 14.1327 118.801 15.3267 118.801 16.6437C118.801 17.7267 119.479 18.4327 120.562 18.4327C121.062 18.4327 121.684 18.1607 122.034 17.7717C122.002 17.8841 121.983 17.9999 121.978 18.1167C121.978 18.2447 122.034 18.3387 122.156 18.3387H123.112C123.262 18.3387 123.39 18.1777 123.418 18.0217L123.985 14.4497C124.002 14.3437 123.918 14.2327 123.807 14.2327ZM126.057 19.6717L129.596 14.5267C129.624 14.4987 129.624 14.4707 129.624 14.4327C129.624 14.3387 129.541 14.2387 129.446 14.2387H128.379C128.329 14.2409 128.281 14.2546 128.238 14.2787C128.194 14.3028 128.157 14.3367 128.129 14.3777L126.657 16.5447L126.046 14.4617C126.023 14.3986 125.981 14.3438 125.927 14.3042C125.872 14.2647 125.807 14.2423 125.74 14.2397H124.701C124.606 14.2397 124.523 14.3397 124.523 14.4337C124.523 14.5007 125.606 17.5897 125.701 17.8837C125.551 18.0947 124.562 19.4727 124.562 19.6397C124.562 19.7397 124.645 19.8177 124.74 19.8177H125.807C125.857 19.8142 125.905 19.7994 125.949 19.7745C125.992 19.7495 126.029 19.7151 126.057 19.6737V19.6717ZM134.907 13.7437C134.907 12.5767 134.007 12.1877 132.979 12.1877H130.773C130.699 12.1877 130.628 12.214 130.572 12.2618C130.516 12.3097 130.479 12.3759 130.467 12.4487L129.567 18.1157C129.556 18.2267 129.639 18.3377 129.745 18.3377H130.884C130.995 18.3377 131.078 18.2547 131.106 18.1597L131.356 16.5487C131.412 16.1487 132.09 16.2877 132.356 16.2877C133.934 16.2877 134.907 15.3437 134.907 13.7437ZM139.584 14.2327H138.528C138.317 14.2327 138.306 14.5387 138.289 14.6887C137.983 14.2167 137.511 14.1327 136.972 14.1327C135.611 14.1327 134.572 15.3267 134.572 16.6437C134.572 17.7267 135.25 18.4327 136.333 18.4327C136.85 18.4327 137.472 18.1607 137.805 17.7717C137.788 17.8547 137.749 18.0327 137.749 18.1167C137.749 18.2447 137.805 18.3387 137.927 18.3387H138.888C139.038 18.3387 139.166 18.1777 139.194 18.0217L139.761 14.4497C139.778 14.3437 139.695 14.2327 139.584 14.2327ZM142.223 12.3827C142.223 12.2717 142.14 12.1887 142.045 12.1887H141.017C140.934 12.1887 140.85 12.2557 140.839 12.3387L139.939 18.1167L139.923 18.1447C139.923 18.2447 140.006 18.3387 140.117 18.3387H141.034C141.173 18.3387 141.312 18.1777 141.323 18.0217L142.223 12.3997V12.3827ZM137.223 15.2607C136.545 15.2607 136.017 15.7997 136.017 16.4827C136.017 17.0217 136.406 17.3157 136.917 17.3157C137.584 17.3157 138.123 16.8047 138.123 16.1217C138.129 15.5777 137.74 15.2607 137.223 15.2607Z"
              fill="white"/>
    </g>
    <defs>
        <clipPath id="clip0_0_1">
            <rect width="32" height="32" fill="white" transform="translate(56)"/>
        </clipPath>
        <clipPath id="clip1_0_1">
            <rect width="32" height="32" fill="white" transform="translate(112)"/>
        </clipPath>
    </defs>
</svg>
