<svg width="32" height="32" viewBox="0 0 32 32" fill="none" xmlns="http://www.w3.org/2000/svg">
<path d="M24.7425 26.0651C23.4179 22.5224 20.0022 20 15.9974 20C11.9926 20 8.57686 22.5224 7.25228 26.0651M24.7425 26.0651C27.5536 23.6206 29.3307 20.0178 29.3307 16C29.3307 8.63619 23.3612 2.66666 15.9974 2.66666C8.6336 2.66666 2.66406 8.63619 2.66406 16C2.66406 20.0178 4.44119 23.6206 7.25228 26.0651M24.7425 26.0651C22.4015 28.1008 19.3434 29.3333 15.9974 29.3333C12.6514 29.3333 9.59331 28.1008 7.25228 26.0651" stroke="white" stroke-width="1.5" stroke-linejoin="round"/>
<circle cx="4" cy="4" r="4" transform="matrix(1 0 0 -1 12 16)" stroke="white" stroke-width="1.5" stroke-linejoin="round"/>
</svg>
