<svg width="24" height="30" viewBox="0 0 24 30" fill="none" xmlns="http://www.w3.org/2000/svg">
    <path d="M20.322 10.967L19.5768 11.0516L20.322 10.967ZM20.9182 16.2204L21.6635 16.1358L20.9182 16.2204ZM3.08697 16.2204L2.34176 16.1358L3.08697 16.2204ZM3.68322 10.967L4.42844 11.0516L3.68322 10.967ZM1.93299 18.8296L1.36188 18.3434H1.36188L1.93299 18.8296ZM22.0722 18.8296L21.5011 19.3157L22.0722 18.8296ZM15.0292 4.83163H14.2792C14.2792 5.15221 14.483 5.43735 14.7863 5.54119L15.0292 4.83163ZM8.97601 4.83163L9.21896 5.54119C9.52225 5.43735 9.72601 5.15221 9.72601 4.83163H8.97601ZM16.7049 25.93C16.8503 25.5421 16.6537 25.1098 16.2658 24.9644C15.8779 24.8191 15.4457 25.0157 15.3003 25.4035L16.7049 25.93ZM8.7049 25.4035C8.55954 25.0157 8.12727 24.8191 7.7394 24.9644C7.35153 25.1098 7.15494 25.5421 7.30031 25.93L8.7049 25.4035ZM19.7055 22.2501H4.29969V23.7501H19.7055V22.2501ZM19.5768 11.0516L20.173 16.305L21.6635 16.1358L21.0672 10.8824L19.5768 11.0516ZM3.83219 16.305L4.42844 11.0516L2.93801 10.8824L2.34176 16.1358L3.83219 16.305ZM2.50409 19.3157C3.24329 18.4473 3.70713 17.4069 3.83219 16.305L2.34176 16.1358C2.25204 16.9263 1.91776 17.6904 1.36188 18.3434L2.50409 19.3157ZM20.173 16.305C20.2981 17.4069 20.7619 18.4473 21.5011 19.3157L22.6433 18.3434C22.0875 17.6904 21.7532 16.9263 21.6635 16.1358L20.173 16.305ZM4.29969 22.2501C3.33992 22.2501 2.63723 21.7729 2.30592 21.189C1.98201 20.6183 1.9895 19.9203 2.50409 19.3157L1.36188 18.3434C0.413768 19.4572 0.385688 20.8445 1.00135 21.9294C1.6096 23.0012 2.82162 23.7501 4.29969 23.7501V22.2501ZM19.7055 23.7501C21.1836 23.7501 22.3956 23.0012 23.0039 21.9294C23.6195 20.8445 23.5914 19.4572 22.6433 18.3434L21.5011 19.3157C22.0157 19.9203 22.0232 20.6183 21.6993 21.189C21.368 21.7729 20.6653 22.2501 19.7055 22.2501V23.7501ZM15.7792 4.83163V4.69334H14.2792V4.83163H15.7792ZM21.0672 10.8824C20.7076 7.71388 18.3539 5.17724 15.2721 4.12207L14.7863 5.54119C17.4175 6.4421 19.2934 8.55463 19.5768 11.0516L21.0672 10.8824ZM9.72601 4.83163V4.69334H8.22601V4.83163H9.72601ZM4.42844 11.0516C4.71184 8.55463 6.5877 6.4421 9.21896 5.54119L8.73307 4.12207C5.65127 5.17724 3.29763 7.71388 2.93801 10.8824L4.42844 11.0516ZM12.0026 2.41675C13.2599 2.41675 14.2792 3.43601 14.2792 4.69334H15.7792C15.7792 2.60759 14.0884 0.916748 12.0026 0.916748V2.41675ZM12.0026 0.916748C9.91685 0.916748 8.22601 2.60759 8.22601 4.69334H9.72601C9.72601 3.43601 10.7453 2.41675 12.0026 2.41675V0.916748ZM15.3003 25.4035C14.832 26.653 13.5489 27.5834 12.0026 27.5834V29.0834C14.1498 29.0834 16.0087 27.7876 16.7049 25.93L15.3003 25.4035ZM12.0026 27.5834C10.4563 27.5834 9.17318 26.653 8.7049 25.4035L7.30031 25.93C7.99652 27.7876 9.85545 29.0834 12.0026 29.0834V27.5834Z"
          fill="white"/>
</svg>
