<svg width="32" height="32" viewBox="0 0 32 32" fill="none" xmlns="http://www.w3.org/2000/svg">
    <path d="M14.6641 27.3333C14.6641 28.4378 13.7686 29.3333 12.6641 29.3333C11.5595 29.3333 10.6641 28.4378 10.6641 27.3333C10.6641 26.2287 11.5595 25.3333 12.6641 25.3333C13.7686 25.3333 14.6641 26.2287 14.6641 27.3333Z"
          stroke="#151515" stroke-width="1.5"/>
    <path d="M26.6641 27.3333C26.6641 28.4378 25.7686 29.3333 24.6641 29.3333C23.5595 29.3333 22.6641 28.4378 22.6641 27.3333C22.6641 26.2287 23.5595 25.3333 24.6641 25.3333C25.7686 25.3333 26.6641 26.2287 26.6641 27.3333Z"
          stroke="#151515" stroke-width="1.5"/>
    <path d="M7.9974 5.33341H23.9974C26.9429 5.33341 29.3307 7.72123 29.3307 10.6667V17.3334C29.3307 20.2789 26.9429 22.6667 23.9974 22.6667H13.3307C10.3852 22.6667 7.9974 20.2789 7.9974 17.3334V5.33341ZM7.9974 5.33341C7.9974 3.86066 6.80349 2.66675 5.33073 2.66675H2.66406M7.9974 10.6667H28.6641"
          stroke="#151515" stroke-width="1.5" stroke-linecap="round" stroke-linejoin="round"/>
</svg>
