<svg width="32" height="32" viewBox="0 0 32 32" fill="none" xmlns="http://www.w3.org/2000/svg">
<g id="Huge-icon/interface/outline/edit-rectangle">
<path id="Vector" d="M29.3307 15.9998V23.9998C29.3307 26.9454 26.9429 29.3332 23.9974 29.3332H7.9974C5.05188 29.3332 2.66406 26.9454 2.66406 23.9998V7.99984C2.66406 5.05432 5.05188 2.6665 7.9974 2.6665H15.9974M20.9125 5.3635C20.9125 5.3635 20.9125 7.27056 22.8196 9.17763C24.7267 11.0847 26.6337 11.0847 26.6337 11.0847M12.2036 21.3193L16.2085 20.7471C16.7861 20.6646 17.3215 20.3969 17.7341 19.9843L28.5408 9.17762C29.594 8.12438 29.594 6.41674 28.5408 5.3635L26.6337 3.45644C25.5805 2.40319 23.8729 2.40319 22.8196 3.45644L12.0129 14.2631C11.6003 14.6758 11.3326 15.2111 11.2501 15.7888L10.678 19.7936C10.5508 20.6836 11.3137 21.4464 12.2036 21.3193Z" stroke="#B44E14" stroke-width="1.5" stroke-linecap="round"/>
</g>
</svg>
