<svg width="32" height="32" viewBox="0 0 32 32" fill="none"
     xmlns="http://www.w3.org/2000/svg">
    <path d="M20.5807 9.33333C20.5807 11.8646 18.5287 13.9167 15.9974 13.9167V15.4167C19.3571 15.4167 22.0807 12.6931 22.0807 9.33333H20.5807ZM15.9974 13.9167C13.4661 13.9167 11.4141 11.8646 11.4141 9.33333H9.91406C9.91406 12.6931 12.6377 15.4167 15.9974 15.4167V13.9167ZM11.4141 9.33333C11.4141 6.80203 13.4661 4.75 15.9974 4.75V3.25C12.6377 3.25 9.91406 5.9736 9.91406 9.33333H11.4141ZM15.9974 4.75C18.5287 4.75 20.5807 6.80203 20.5807 9.33333H22.0807C22.0807 5.9736 19.3571 3.25 15.9974 3.25V4.75ZM24.5807 23.3333C24.5807 24.1849 23.8709 25.1577 22.2616 25.9623C20.6972 26.7446 18.4835 27.25 15.9974 27.25V28.75C18.6659 28.75 21.1189 28.2108 22.9325 27.304C24.7012 26.4196 26.0807 25.0591 26.0807 23.3333H24.5807ZM15.9974 27.25C13.5113 27.25 11.2976 26.7446 9.73314 25.9623C8.12387 25.1577 7.41406 24.1849 7.41406 23.3333H5.91406C5.91406 25.0591 7.29359 26.4196 9.06232 27.304C10.8759 28.2108 13.3289 28.75 15.9974 28.75V27.25ZM7.41406 23.3333C7.41406 22.4818 8.12387 21.509 9.73314 20.7043C11.2976 19.9221 13.5113 19.4167 15.9974 19.4167V17.9167C13.3289 17.9167 10.8759 18.4559 9.06232 19.3627C7.29359 20.247 5.91406 21.6075 5.91406 23.3333H7.41406ZM15.9974 19.4167C18.4835 19.4167 20.6972 19.9221 22.2616 20.7043C23.8709 21.509 24.5807 22.4818 24.5807 23.3333H26.0807C26.0807 21.6075 24.7012 20.247 22.9325 19.3627C21.1189 18.4559 18.6659 17.9167 15.9974 17.9167V19.4167Z"
          fill="#151515"/>
</svg>