<svg width="128" height="128" viewBox="0 0 128 128" fill="none" xmlns="http://www.w3.org/2000/svg">
    <path fill-rule="evenodd" clip-rule="evenodd"
          d="M117.331 63.9998C117.331 80.0711 110.222 94.4821 98.9778 104.26C89.6137 112.403 77.3813 117.333 63.9974 117.333C50.6135 117.333 38.3811 112.403 29.0169 104.26C17.7726 94.4821 10.6641 80.0711 10.6641 63.9998C10.6641 34.5446 34.5422 10.6665 63.9974 10.6665C93.4526 10.6665 117.331 34.5446 117.331 63.9998ZM63.9975 101.333C73.3662 101.333 81.9289 97.8822 88.4838 92.1821C89.2384 91.5259 89.9664 90.8399 90.6659 90.126C84.9011 80.8017 75.1083 74.6665 63.9975 74.6665C52.8867 74.6665 43.0939 80.8017 37.3291 90.126C38.0286 90.8399 38.7566 91.5259 39.5112 92.1821C46.0661 97.8822 54.6288 101.333 63.9975 101.333ZM63.9974 63.9998C72.834 63.9998 79.9974 56.8364 79.9974 47.9998C79.9974 39.1633 72.834 31.9998 63.9974 31.9998C55.1608 31.9998 47.9974 39.1633 47.9974 47.9998C47.9974 56.8364 55.1608 63.9998 63.9974 63.9998Z"
          fill="#959595"/>
</svg>
