<svg width="32" height="32" viewBox="0 0 32 32" fill="none" xmlns="http://www.w3.org/2000/svg">
    <path d="M28.5307 19.0001L18.9974 28.5334C18.7307 28.8001 18.4307 29.0001 18.0974 29.1334C17.7641 29.2667 17.4307 29.3334 17.0974 29.3334C16.7641 29.3334 16.4307 29.2667 16.0974 29.1334C15.7641 29.0001 15.4641 28.8001 15.1974 28.5334L3.43073 16.7667C3.18628 16.5223 2.9974 16.2392 2.86406 15.9174C2.73073 15.5956 2.66406 15.2565 2.66406 14.9001V5.33341C2.66406 4.60008 2.9254 3.97253 3.44806 3.45075C3.97073 2.92897 4.59828 2.66764 5.33073 2.66675H14.8974C15.253 2.66675 15.5974 2.73919 15.9307 2.88408C16.2641 3.02897 16.553 3.22319 16.7974 3.46675L28.5307 15.2334C28.7974 15.5001 28.9921 15.8001 29.1147 16.1334C29.2374 16.4667 29.2983 16.8001 29.2974 17.1334C29.2965 17.4667 29.2356 17.7947 29.1147 18.1174C28.9938 18.4401 28.7992 18.7343 28.5307 19.0001ZM17.0974 26.6667L26.6307 17.1334L14.8641 5.33341H5.33073V14.8667L17.0974 26.6667ZM8.66406 10.6667C9.21962 10.6667 9.69206 10.4725 10.0814 10.0841C10.4707 9.69564 10.665 9.22319 10.6641 8.66675C10.6632 8.1103 10.469 7.6383 10.0814 7.25075C9.69384 6.86319 9.2214 6.66853 8.66406 6.66675C8.10673 6.66497 7.63473 6.85964 7.24806 7.25075C6.8614 7.64186 6.66673 8.11386 6.66406 8.66675C6.6614 9.21964 6.85606 9.69208 7.24806 10.0841C7.64006 10.4761 8.11206 10.6703 8.66406 10.6667Z"
          fill="black"/>
</svg>
