<svg width="1032" height="104" viewBox="0 0 1032 104" fill="none" xmlns="http://www.w3.org/2000/svg">
    <circle cx="246" cy="80" r="22" stroke="#297F21" stroke-width="4"/>
    <path d="M186.88 13.16H181.06L180.06 16H177.68L182.66 2.08H185.3L190.28 16H187.88L186.88 13.16ZM186.24 11.3L183.98 4.84L181.7 11.3H186.24ZM191.685 10.48C191.685 9.34667 191.912 8.35333 192.365 7.5C192.832 6.63333 193.472 5.96667 194.285 5.5C195.099 5.03333 196.032 4.8 197.085 4.8C198.419 4.8 199.519 5.12 200.385 5.76C201.265 6.38667 201.859 7.28667 202.165 8.46H199.705C199.505 7.91333 199.185 7.48667 198.745 7.18C198.305 6.87333 197.752 6.72 197.085 6.72C196.152 6.72 195.405 7.05333 194.845 7.72C194.299 8.37333 194.025 9.29333 194.025 10.48C194.025 11.6667 194.299 12.5933 194.845 13.26C195.405 13.9267 196.152 14.26 197.085 14.26C198.405 14.26 199.279 13.68 199.705 12.52H202.165C201.845 13.64 201.245 14.5333 200.365 15.2C199.485 15.8533 198.392 16.18 197.085 16.18C196.032 16.18 195.099 15.9467 194.285 15.48C193.472 15 192.832 14.3333 192.365 13.48C191.912 12.6133 191.685 11.6133 191.685 10.48ZM203.678 10.48C203.678 9.34667 203.904 8.35333 204.358 7.5C204.824 6.63333 205.464 5.96667 206.278 5.5C207.091 5.03333 208.024 4.8 209.078 4.8C210.411 4.8 211.511 5.12 212.378 5.76C213.258 6.38667 213.851 7.28667 214.158 8.46H211.698C211.498 7.91333 211.178 7.48667 210.738 7.18C210.298 6.87333 209.744 6.72 209.078 6.72C208.144 6.72 207.398 7.05333 206.838 7.72C206.291 8.37333 206.018 9.29333 206.018 10.48C206.018 11.6667 206.291 12.5933 206.838 13.26C207.398 13.9267 208.144 14.26 209.078 14.26C210.398 14.26 211.271 13.68 211.698 12.52H214.158C213.838 13.64 213.238 14.5333 212.358 15.2C211.478 15.8533 210.384 16.18 209.078 16.18C208.024 16.18 207.091 15.9467 206.278 15.48C205.464 15 204.824 14.3333 204.358 13.48C203.904 12.6133 203.678 11.6133 203.678 10.48ZM221.21 16.18C220.17 16.18 219.23 15.9467 218.39 15.48C217.55 15 216.89 14.3333 216.41 13.48C215.93 12.6133 215.69 11.6133 215.69 10.48C215.69 9.36 215.936 8.36667 216.43 7.5C216.923 6.63333 217.596 5.96667 218.45 5.5C219.303 5.03333 220.256 4.8 221.31 4.8C222.363 4.8 223.316 5.03333 224.17 5.5C225.023 5.96667 225.696 6.63333 226.19 7.5C226.683 8.36667 226.93 9.36 226.93 10.48C226.93 11.6 226.676 12.5933 226.17 13.46C225.663 14.3267 224.97 15 224.09 15.48C223.223 15.9467 222.263 16.18 221.21 16.18ZM221.21 14.2C221.796 14.2 222.343 14.06 222.85 13.78C223.37 13.5 223.79 13.08 224.11 12.52C224.43 11.96 224.59 11.28 224.59 10.48C224.59 9.68 224.436 9.00667 224.13 8.46C223.823 7.9 223.416 7.48 222.91 7.2C222.403 6.92 221.856 6.78 221.27 6.78C220.683 6.78 220.136 6.92 219.63 7.2C219.136 7.48 218.743 7.9 218.45 8.46C218.156 9.00667 218.01 9.68 218.01 10.48C218.01 11.6667 218.31 12.5867 218.91 13.24C219.523 13.88 220.29 14.2 221.21 14.2ZM239.164 4.98V16H236.884V14.7C236.524 15.1533 236.05 15.5133 235.464 15.78C234.89 16.0333 234.277 16.16 233.624 16.16C232.757 16.16 231.977 15.98 231.284 15.62C230.604 15.26 230.064 14.7267 229.664 14.02C229.277 13.3133 229.084 12.46 229.084 11.46V4.98H231.344V11.12C231.344 12.1067 231.59 12.8667 232.084 13.4C232.577 13.92 233.25 14.18 234.104 14.18C234.957 14.18 235.63 13.92 236.124 13.4C236.63 12.8667 236.884 12.1067 236.884 11.12V4.98H239.164ZM247.732 4.8C248.599 4.8 249.372 4.98 250.052 5.34C250.745 5.7 251.285 6.23333 251.672 6.94C252.059 7.64667 252.252 8.5 252.252 9.5V16H249.992V9.84C249.992 8.85333 249.745 8.1 249.252 7.58C248.759 7.04667 248.085 6.78 247.232 6.78C246.379 6.78 245.699 7.04667 245.192 7.58C244.699 8.1 244.452 8.85333 244.452 9.84V16H242.172V4.98H244.452V6.24C244.825 5.78667 245.299 5.43333 245.872 5.18C246.459 4.92667 247.079 4.8 247.732 4.8ZM257.82 6.84V12.94C257.82 13.3533 257.913 13.6533 258.1 13.84C258.3 14.0133 258.633 14.1 259.1 14.1H260.5V16H258.7C257.673 16 256.887 15.76 256.34 15.28C255.793 14.8 255.52 14.02 255.52 12.94V6.84H254.22V4.98H255.52V2.24H257.82V4.98H260.5V6.84H257.82ZM267.037 10.44C267.037 9.33333 267.264 8.35333 267.717 7.5C268.184 6.64667 268.81 5.98667 269.597 5.52C270.397 5.04 271.284 4.8 272.257 4.8C272.977 4.8 273.684 4.96 274.377 5.28C275.084 5.58667 275.644 6 276.057 6.52V1.2H278.357V16H276.057V14.34C275.684 14.8733 275.164 15.3133 274.497 15.66C273.844 16.0067 273.09 16.18 272.237 16.18C271.277 16.18 270.397 15.94 269.597 15.46C268.81 14.9667 268.184 14.2867 267.717 13.42C267.264 12.54 267.037 11.5467 267.037 10.44ZM276.057 10.48C276.057 9.72 275.897 9.06 275.577 8.5C275.27 7.94 274.864 7.51333 274.357 7.22C273.85 6.92667 273.304 6.78 272.717 6.78C272.13 6.78 271.584 6.92667 271.077 7.22C270.57 7.5 270.157 7.92 269.837 8.48C269.53 9.02667 269.377 9.68 269.377 10.44C269.377 11.2 269.53 11.8667 269.837 12.44C270.157 13.0133 270.57 13.4533 271.077 13.76C271.597 14.0533 272.144 14.2 272.717 14.2C273.304 14.2 273.85 14.0533 274.357 13.76C274.864 13.4667 275.27 13.04 275.577 12.48C275.897 11.9067 276.057 11.24 276.057 10.48ZM280.592 10.44C280.592 9.33333 280.818 8.35333 281.272 7.5C281.738 6.64667 282.365 5.98667 283.152 5.52C283.952 5.04 284.832 4.8 285.792 4.8C286.658 4.8 287.412 4.97333 288.052 5.32C288.705 5.65333 289.225 6.07333 289.612 6.58V4.98H291.912V16H289.612V14.36C289.225 14.88 288.698 15.3133 288.032 15.66C287.365 16.0067 286.605 16.18 285.752 16.18C284.805 16.18 283.938 15.94 283.152 15.46C282.365 14.9667 281.738 14.2867 281.272 13.42C280.818 12.54 280.592 11.5467 280.592 10.44ZM289.612 10.48C289.612 9.72 289.452 9.06 289.132 8.5C288.825 7.94 288.418 7.51333 287.912 7.22C287.405 6.92667 286.858 6.78 286.272 6.78C285.685 6.78 285.138 6.92667 284.632 7.22C284.125 7.5 283.712 7.92 283.392 8.48C283.085 9.02667 282.932 9.68 282.932 10.44C282.932 11.2 283.085 11.8667 283.392 12.44C283.712 13.0133 284.125 13.4533 284.632 13.76C285.152 14.0533 285.698 14.2 286.272 14.2C286.858 14.2 287.405 14.0533 287.912 13.76C288.418 13.4667 288.825 13.04 289.132 12.48C289.452 11.9067 289.612 11.24 289.612 10.48ZM297.566 6.84V12.94C297.566 13.3533 297.66 13.6533 297.846 13.84C298.046 14.0133 298.38 14.1 298.846 14.1H300.246V16H298.446C297.42 16 296.633 15.76 296.086 15.28C295.54 14.8 295.266 14.02 295.266 12.94V6.84H293.966V4.98H295.266V2.24H297.566V4.98H300.246V6.84H297.566ZM301.588 10.44C301.588 9.33333 301.814 8.35333 302.268 7.5C302.734 6.64667 303.361 5.98667 304.148 5.52C304.948 5.04 305.828 4.8 306.788 4.8C307.654 4.8 308.408 4.97333 309.048 5.32C309.701 5.65333 310.221 6.07333 310.608 6.58V4.98H312.908V16H310.608V14.36C310.221 14.88 309.694 15.3133 309.028 15.66C308.361 16.0067 307.601 16.18 306.748 16.18C305.801 16.18 304.934 15.94 304.148 15.46C303.361 14.9667 302.734 14.2867 302.268 13.42C301.814 12.54 301.588 11.5467 301.588 10.44ZM310.608 10.48C310.608 9.72 310.448 9.06 310.128 8.5C309.821 7.94 309.414 7.51333 308.908 7.22C308.401 6.92667 307.854 6.78 307.268 6.78C306.681 6.78 306.134 6.92667 305.628 7.22C305.121 7.5 304.708 7.92 304.388 8.48C304.081 9.02667 303.928 9.68 303.928 10.44C303.928 11.2 304.081 11.8667 304.388 12.44C304.708 13.0133 305.121 13.4533 305.628 13.76C306.148 14.0533 306.694 14.2 307.268 14.2C307.854 14.2 308.401 14.0533 308.908 13.76C309.414 13.4667 309.821 13.04 310.128 12.48C310.448 11.9067 310.608 11.24 310.608 10.48Z"
          fill="#595959"/>
    <path d="M496.22 6.24C496.22 6.94667 496.053 7.61333 495.72 8.24C495.387 8.86667 494.853 9.38 494.12 9.78C493.387 10.1667 492.447 10.36 491.3 10.36H488.78V16H486.5V2.1H491.3C492.367 2.1 493.267 2.28667 494 2.66C494.747 3.02 495.3 3.51333 495.66 4.14C496.033 4.76667 496.22 5.46667 496.22 6.24ZM491.3 8.5C492.167 8.5 492.813 8.30667 493.24 7.92C493.667 7.52 493.88 6.96 493.88 6.24C493.88 4.72 493.02 3.96 491.3 3.96H488.78V8.5H491.3ZM500.675 6.58C501.008 6.02 501.448 5.58667 501.995 5.28C502.555 4.96 503.215 4.8 503.975 4.8V7.16H503.395C502.501 7.16 501.821 7.38667 501.355 7.84C500.901 8.29333 500.675 9.08 500.675 10.2V16H498.395V4.98H500.675V6.58ZM510.85 16.18C509.81 16.18 508.87 15.9467 508.03 15.48C507.19 15 506.53 14.3333 506.05 13.48C505.57 12.6133 505.33 11.6133 505.33 10.48C505.33 9.36 505.577 8.36667 506.07 7.5C506.564 6.63333 507.237 5.96667 508.09 5.5C508.944 5.03333 509.897 4.8 510.95 4.8C512.004 4.8 512.957 5.03333 513.81 5.5C514.664 5.96667 515.337 6.63333 515.83 7.5C516.324 8.36667 516.57 9.36 516.57 10.48C516.57 11.6 516.317 12.5933 515.81 13.46C515.304 14.3267 514.61 15 513.73 15.48C512.864 15.9467 511.904 16.18 510.85 16.18ZM510.85 14.2C511.437 14.2 511.984 14.06 512.49 13.78C513.01 13.5 513.43 13.08 513.75 12.52C514.07 11.96 514.23 11.28 514.23 10.48C514.23 9.68 514.077 9.00667 513.77 8.46C513.464 7.9 513.057 7.48 512.55 7.2C512.044 6.92 511.497 6.78 510.91 6.78C510.324 6.78 509.777 6.92 509.27 7.2C508.777 7.48 508.384 7.9 508.09 8.46C507.797 9.00667 507.65 9.68 507.65 10.48C507.65 11.6667 507.95 12.5867 508.55 13.24C509.164 13.88 509.93 14.2 510.85 14.2ZM523.444 6.84H521.404V16H519.104V6.84H517.804V4.98H519.104V4.2C519.104 2.93333 519.438 2.01333 520.104 1.44C520.784 0.853333 521.844 0.56 523.284 0.56V2.46C522.591 2.46 522.104 2.59333 521.824 2.86C521.544 3.11333 521.404 3.56 521.404 4.2V4.98H523.444V6.84ZM526.625 3.52C526.212 3.52 525.865 3.38 525.585 3.1C525.305 2.82 525.165 2.47333 525.165 2.06C525.165 1.64667 525.305 1.3 525.585 1.02C525.865 0.739999 526.212 0.599999 526.625 0.599999C527.025 0.599999 527.365 0.739999 527.645 1.02C527.925 1.3 528.065 1.64667 528.065 2.06C528.065 2.47333 527.925 2.82 527.645 3.1C527.365 3.38 527.025 3.52 526.625 3.52ZM527.745 4.98V16H525.465V4.98H527.745ZM533.018 1.2V16H530.738V1.2H533.018ZM546.112 10.22C546.112 10.6333 546.085 11.0067 546.032 11.34H537.612C537.678 12.22 538.005 12.9267 538.592 13.46C539.178 13.9933 539.898 14.26 540.752 14.26C541.978 14.26 542.845 13.7467 543.352 12.72H545.812C545.478 13.7333 544.872 14.5667 543.992 15.22C543.125 15.86 542.045 16.18 540.752 16.18C539.698 16.18 538.752 15.9467 537.912 15.48C537.085 15 536.432 14.3333 535.952 13.48C535.485 12.6133 535.252 11.6133 535.252 10.48C535.252 9.34667 535.478 8.35333 535.932 7.5C536.398 6.63333 537.045 5.96667 537.872 5.5C538.712 5.03333 539.672 4.8 540.752 4.8C541.792 4.8 542.718 5.02667 543.532 5.48C544.345 5.93333 544.978 6.57333 545.432 7.4C545.885 8.21333 546.112 9.15333 546.112 10.22ZM543.732 9.5C543.718 8.66 543.418 7.98667 542.832 7.48C542.245 6.97333 541.518 6.72 540.652 6.72C539.865 6.72 539.192 6.97333 538.632 7.48C538.072 7.97333 537.738 8.64667 537.632 9.5H543.732Z"
          fill="#595959"/>
    <path d="M713.94 8.86C714.687 8.99333 715.32 9.38667 715.84 10.04C716.36 10.6933 716.62 11.4333 716.62 12.26C716.62 12.9667 716.433 13.6067 716.06 14.18C715.7 14.74 715.173 15.1867 714.48 15.52C713.787 15.84 712.98 16 712.06 16H706.5V2.1H711.8C712.747 2.1 713.56 2.26 714.24 2.58C714.92 2.9 715.433 3.33333 715.78 3.88C716.127 4.41333 716.3 5.01333 716.3 5.68C716.3 6.48 716.087 7.14667 715.66 7.68C715.233 8.21333 714.66 8.60667 713.94 8.86ZM708.78 7.94H711.6C712.347 7.94 712.927 7.77333 713.34 7.44C713.767 7.09333 713.98 6.6 713.98 5.96C713.98 5.33333 713.767 4.84667 713.34 4.5C712.927 4.14 712.347 3.96 711.6 3.96H708.78V7.94ZM711.86 14.14C712.633 14.14 713.24 13.9533 713.68 13.58C714.12 13.2067 714.34 12.6867 714.34 12.02C714.34 11.34 714.107 10.8 713.64 10.4C713.173 10 712.553 9.8 711.78 9.8H708.78V14.14H711.86ZM729.078 4.98V16H726.798V14.7C726.438 15.1533 725.964 15.5133 725.378 15.78C724.804 16.0333 724.191 16.16 723.538 16.16C722.671 16.16 721.891 15.98 721.198 15.62C720.518 15.26 719.978 14.7267 719.578 14.02C719.191 13.3133 718.998 12.46 718.998 11.46V4.98H721.258V11.12C721.258 12.1067 721.504 12.8667 721.998 13.4C722.491 13.92 723.164 14.18 724.018 14.18C724.871 14.18 725.544 13.92 726.038 13.4C726.544 12.8667 726.798 12.1067 726.798 11.12V4.98H729.078ZM736.086 16.18C735.219 16.18 734.439 16.0267 733.746 15.72C733.066 15.4 732.526 14.9733 732.126 14.44C731.726 13.8933 731.513 13.2867 731.486 12.62H733.846C733.886 13.0867 734.106 13.48 734.506 13.8C734.919 14.1067 735.433 14.26 736.046 14.26C736.686 14.26 737.179 14.14 737.526 13.9C737.886 13.6467 738.066 13.3267 738.066 12.94C738.066 12.5267 737.866 12.22 737.466 12.02C737.079 11.82 736.459 11.6 735.606 11.36C734.779 11.1333 734.106 10.9133 733.586 10.7C733.066 10.4867 732.613 10.16 732.226 9.72C731.853 9.28 731.666 8.7 731.666 7.98C731.666 7.39333 731.839 6.86 732.186 6.38C732.533 5.88667 733.026 5.5 733.666 5.22C734.319 4.94 735.066 4.8 735.906 4.8C737.159 4.8 738.166 5.12 738.926 5.76C739.699 6.38667 740.113 7.24667 740.166 8.34H737.886C737.846 7.84667 737.646 7.45333 737.286 7.16C736.926 6.86667 736.439 6.72 735.826 6.72C735.226 6.72 734.766 6.83333 734.446 7.06C734.126 7.28667 733.966 7.58667 733.966 7.96C733.966 8.25333 734.073 8.5 734.286 8.7C734.499 8.9 734.759 9.06 735.066 9.18C735.373 9.28667 735.826 9.42667 736.426 9.6C737.226 9.81333 737.879 10.0333 738.386 10.26C738.906 10.4733 739.353 10.7933 739.726 11.22C740.099 11.6467 740.293 12.2133 740.306 12.92C740.306 13.5467 740.133 14.1067 739.786 14.6C739.439 15.0933 738.946 15.48 738.306 15.76C737.679 16.04 736.939 16.18 736.086 16.18ZM743.93 3.52C743.516 3.52 743.17 3.38 742.89 3.1C742.61 2.82 742.47 2.47333 742.47 2.06C742.47 1.64667 742.61 1.3 742.89 1.02C743.17 0.739999 743.516 0.599999 743.93 0.599999C744.33 0.599999 744.67 0.739999 744.95 1.02C745.23 1.3 745.37 1.64667 745.37 2.06C745.37 2.47333 745.23 2.82 744.95 3.1C744.67 3.38 744.33 3.52 743.93 3.52ZM745.05 4.98V16H742.77V4.98H745.05ZM753.603 4.8C754.47 4.8 755.243 4.98 755.923 5.34C756.616 5.7 757.156 6.23333 757.543 6.94C757.93 7.64667 758.123 8.5 758.123 9.5V16H755.863V9.84C755.863 8.85333 755.616 8.1 755.123 7.58C754.63 7.04667 753.956 6.78 753.103 6.78C752.25 6.78 751.57 7.04667 751.063 7.58C750.57 8.1 750.323 8.85333 750.323 9.84V16H748.043V4.98H750.323V6.24C750.696 5.78667 751.17 5.43333 751.743 5.18C752.33 4.92667 752.95 4.8 753.603 4.8ZM771.131 10.22C771.131 10.6333 771.105 11.0067 771.051 11.34H762.631C762.698 12.22 763.025 12.9267 763.611 13.46C764.198 13.9933 764.918 14.26 765.771 14.26C766.998 14.26 767.865 13.7467 768.371 12.72H770.831C770.498 13.7333 769.891 14.5667 769.011 15.22C768.145 15.86 767.065 16.18 765.771 16.18C764.718 16.18 763.771 15.9467 762.931 15.48C762.105 15 761.451 14.3333 760.971 13.48C760.505 12.6133 760.271 11.6133 760.271 10.48C760.271 9.34667 760.498 8.35333 760.951 7.5C761.418 6.63333 762.065 5.96667 762.891 5.5C763.731 5.03333 764.691 4.8 765.771 4.8C766.811 4.8 767.738 5.02667 768.551 5.48C769.365 5.93333 769.998 6.57333 770.451 7.4C770.905 8.21333 771.131 9.15333 771.131 10.22ZM768.751 9.5C768.738 8.66 768.438 7.98667 767.851 7.48C767.265 6.97333 766.538 6.72 765.671 6.72C764.885 6.72 764.211 6.97333 763.651 7.48C763.091 7.97333 762.758 8.64667 762.651 9.5H768.751ZM777.375 16.18C776.508 16.18 775.728 16.0267 775.035 15.72C774.355 15.4 773.815 14.9733 773.415 14.44C773.015 13.8933 772.802 13.2867 772.775 12.62H775.135C775.175 13.0867 775.395 13.48 775.795 13.8C776.208 14.1067 776.722 14.26 777.335 14.26C777.975 14.26 778.468 14.14 778.815 13.9C779.175 13.6467 779.355 13.3267 779.355 12.94C779.355 12.5267 779.155 12.22 778.755 12.02C778.368 11.82 777.748 11.6 776.895 11.36C776.068 11.1333 775.395 10.9133 774.875 10.7C774.355 10.4867 773.902 10.16 773.515 9.72C773.142 9.28 772.955 8.7 772.955 7.98C772.955 7.39333 773.128 6.86 773.475 6.38C773.822 5.88667 774.315 5.5 774.955 5.22C775.608 4.94 776.355 4.8 777.195 4.8C778.448 4.8 779.455 5.12 780.215 5.76C780.988 6.38667 781.402 7.24667 781.455 8.34H779.175C779.135 7.84667 778.935 7.45333 778.575 7.16C778.215 6.86667 777.728 6.72 777.115 6.72C776.515 6.72 776.055 6.83333 775.735 7.06C775.415 7.28667 775.255 7.58667 775.255 7.96C775.255 8.25333 775.362 8.5 775.575 8.7C775.788 8.9 776.048 9.06 776.355 9.18C776.662 9.28667 777.115 9.42667 777.715 9.6C778.515 9.81333 779.168 10.0333 779.675 10.26C780.195 10.4733 780.642 10.7933 781.015 11.22C781.388 11.6467 781.582 12.2133 781.595 12.92C781.595 13.5467 781.422 14.1067 781.075 14.6C780.728 15.0933 780.235 15.48 779.595 15.76C778.968 16.04 778.228 16.18 777.375 16.18ZM788.059 16.18C787.192 16.18 786.412 16.0267 785.719 15.72C785.039 15.4 784.499 14.9733 784.099 14.44C783.699 13.8933 783.485 13.2867 783.459 12.62H785.819C785.859 13.0867 786.079 13.48 786.479 13.8C786.892 14.1067 787.405 14.26 788.019 14.26C788.659 14.26 789.152 14.14 789.499 13.9C789.859 13.6467 790.039 13.3267 790.039 12.94C790.039 12.5267 789.839 12.22 789.439 12.02C789.052 11.82 788.432 11.6 787.579 11.36C786.752 11.1333 786.079 10.9133 785.559 10.7C785.039 10.4867 784.585 10.16 784.199 9.72C783.825 9.28 783.639 8.7 783.639 7.98C783.639 7.39333 783.812 6.86 784.159 6.38C784.505 5.88667 784.999 5.5 785.639 5.22C786.292 4.94 787.039 4.8 787.879 4.8C789.132 4.8 790.139 5.12 790.899 5.76C791.672 6.38667 792.085 7.24667 792.139 8.34H789.859C789.819 7.84667 789.619 7.45333 789.259 7.16C788.899 6.86667 788.412 6.72 787.799 6.72C787.199 6.72 786.739 6.83333 786.419 7.06C786.099 7.28667 785.939 7.58667 785.939 7.96C785.939 8.25333 786.045 8.5 786.259 8.7C786.472 8.9 786.732 9.06 787.039 9.18C787.345 9.28667 787.799 9.42667 788.399 9.6C789.199 9.81333 789.852 10.0333 790.359 10.26C790.879 10.4733 791.325 10.7933 791.699 11.22C792.072 11.6467 792.265 12.2133 792.279 12.92C792.279 13.5467 792.105 14.1067 791.759 14.6C791.412 15.0933 790.919 15.48 790.279 15.76C789.652 16.04 788.912 16.18 788.059 16.18ZM804.378 4.8C805.231 4.8 805.984 4.97333 806.638 5.32C807.304 5.65333 807.824 6.07333 808.198 6.58V4.98H810.498V16.18C810.498 17.1933 810.284 18.0933 809.858 18.88C809.431 19.68 808.811 20.3067 807.998 20.76C807.198 21.2133 806.238 21.44 805.118 21.44C803.624 21.44 802.384 21.0867 801.398 20.38C800.411 19.6867 799.851 18.74 799.718 17.54H801.978C802.151 18.1133 802.518 18.5733 803.078 18.92C803.651 19.28 804.331 19.46 805.118 19.46C806.038 19.46 806.778 19.18 807.338 18.62C807.911 18.06 808.198 17.2467 808.198 16.18V14.34C807.811 14.86 807.284 15.3 806.618 15.66C805.964 16.0067 805.218 16.18 804.378 16.18C803.418 16.18 802.538 15.94 801.738 15.46C800.951 14.9667 800.324 14.2867 799.858 13.42C799.404 12.54 799.178 11.5467 799.178 10.44C799.178 9.33333 799.404 8.35333 799.858 7.5C800.324 6.64667 800.951 5.98667 801.738 5.52C802.538 5.04 803.418 4.8 804.378 4.8ZM808.198 10.48C808.198 9.72 808.038 9.06 807.718 8.5C807.411 7.94 807.004 7.51333 806.498 7.22C805.991 6.92667 805.444 6.78 804.858 6.78C804.271 6.78 803.724 6.92667 803.218 7.22C802.711 7.5 802.298 7.92 801.978 8.48C801.671 9.02667 801.518 9.68 801.518 10.44C801.518 11.2 801.671 11.8667 801.978 12.44C802.298 13.0133 802.711 13.4533 803.218 13.76C803.738 14.0533 804.284 14.2 804.858 14.2C805.444 14.2 805.991 14.0533 806.498 13.76C807.004 13.4667 807.411 13.04 807.718 12.48C808.038 11.9067 808.198 11.24 808.198 10.48ZM812.732 10.44C812.732 9.33333 812.959 8.35333 813.412 7.5C813.879 6.64667 814.506 5.98667 815.292 5.52C816.092 5.04 816.972 4.8 817.932 4.8C818.799 4.8 819.552 4.97333 820.192 5.32C820.846 5.65333 821.366 6.07333 821.752 6.58V4.98H824.052V16H821.752V14.36C821.366 14.88 820.839 15.3133 820.172 15.66C819.506 16.0067 818.746 16.18 817.892 16.18C816.946 16.18 816.079 15.94 815.292 15.46C814.506 14.9667 813.879 14.2867 813.412 13.42C812.959 12.54 812.732 11.5467 812.732 10.44ZM821.752 10.48C821.752 9.72 821.592 9.06 821.272 8.5C820.966 7.94 820.559 7.51333 820.052 7.22C819.546 6.92667 818.999 6.78 818.412 6.78C817.826 6.78 817.279 6.92667 816.772 7.22C816.266 7.5 815.852 7.92 815.532 8.48C815.226 9.02667 815.072 9.68 815.072 10.44C815.072 11.2 815.226 11.8667 815.532 12.44C815.852 13.0133 816.266 13.4533 816.772 13.76C817.292 14.0533 817.839 14.2 818.412 14.2C818.999 14.2 819.546 14.0533 820.052 13.76C820.559 13.4667 820.966 13.04 821.272 12.48C821.592 11.9067 821.752 11.24 821.752 10.48ZM829.327 1.2V16H827.047V1.2H829.327ZM834.6 1.2V16H832.32V1.2H834.6ZM847.694 10.22C847.694 10.6333 847.667 11.0067 847.614 11.34H839.194C839.26 12.22 839.587 12.9267 840.174 13.46C840.76 13.9933 841.48 14.26 842.334 14.26C843.56 14.26 844.427 13.7467 844.934 12.72H847.394C847.06 13.7333 846.454 14.5667 845.574 15.22C844.707 15.86 843.627 16.18 842.334 16.18C841.28 16.18 840.334 15.9467 839.494 15.48C838.667 15 838.014 14.3333 837.534 13.48C837.067 12.6133 836.834 11.6133 836.834 10.48C836.834 9.34667 837.06 8.35333 837.514 7.5C837.98 6.63333 838.627 5.96667 839.454 5.5C840.294 5.03333 841.254 4.8 842.334 4.8C843.374 4.8 844.3 5.02667 845.114 5.48C845.927 5.93333 846.56 6.57333 847.014 7.4C847.467 8.21333 847.694 9.15333 847.694 10.22ZM845.314 9.5C845.3 8.66 845 7.98667 844.414 7.48C843.827 6.97333 843.1 6.72 842.234 6.72C841.447 6.72 840.774 6.97333 840.214 7.48C839.654 7.97333 839.32 8.64667 839.214 9.5H845.314ZM852.218 6.58C852.551 6.02 852.991 5.58667 853.538 5.28C854.098 4.96 854.758 4.8 855.518 4.8V7.16H854.938C854.044 7.16 853.364 7.38667 852.898 7.84C852.444 8.29333 852.218 9.08 852.218 10.2V16H849.938V4.98H852.218V6.58ZM867.533 4.98L860.773 21.18H858.413L860.653 15.82L856.313 4.98H858.853L861.953 13.38L865.173 4.98H867.533Z"
          fill="#595959"/>
    <circle cx="516" cy="80" r="22" stroke="#297F21" stroke-width="4"/>
    <circle cx="786" cy="80" r="22" stroke="#297F21" stroke-width="4"/>
    <path d="M243.9 74.5V72.42H248.06V87H245.76V74.5H243.9Z" fill="#595959"/>
    <path d="M512.46 83.9C513.74 82.7933 514.747 81.8867 515.48 81.18C516.227 80.46 516.847 79.7133 517.34 78.94C517.833 78.1667 518.08 77.3933 518.08 76.62C518.08 75.82 517.887 75.1933 517.5 74.74C517.127 74.2867 516.533 74.06 515.72 74.06C514.933 74.06 514.32 74.3133 513.88 74.82C513.453 75.3133 513.227 75.98 513.2 76.82H511C511.04 75.3 511.493 74.14 512.36 73.34C513.24 72.5267 514.353 72.12 515.7 72.12C517.153 72.12 518.287 72.52 519.1 73.32C519.927 74.12 520.34 75.1867 520.34 76.52C520.34 77.48 520.093 78.4067 519.6 79.3C519.12 80.18 518.54 80.9733 517.86 81.68C517.193 82.3733 516.34 83.18 515.3 84.1L514.4 84.9H520.74V86.8H511.02V85.14L512.46 83.9Z"
          fill="#595959"/>
    <path d="M781.16 76.02C781.24 74.78 781.713 73.8133 782.58 73.12C783.46 72.4267 784.58 72.08 785.94 72.08C786.873 72.08 787.68 72.2467 788.36 72.58C789.04 72.9133 789.553 73.3667 789.9 73.94C790.247 74.5133 790.42 75.16 790.42 75.88C790.42 76.7067 790.2 77.4133 789.76 78C789.32 78.5867 788.793 78.98 788.18 79.18V79.26C788.967 79.5 789.58 79.94 790.02 80.58C790.46 81.2067 790.68 82.0133 790.68 83C790.68 83.7867 790.5 84.4867 790.14 85.1C789.78 85.7133 789.247 86.2 788.54 86.56C787.833 86.9067 786.987 87.08 786 87.08C784.56 87.08 783.373 86.7133 782.44 85.98C781.52 85.2333 781.027 84.1667 780.96 82.78H783.16C783.213 83.4867 783.487 84.0667 783.98 84.52C784.473 84.96 785.14 85.18 785.98 85.18C786.793 85.18 787.42 84.96 787.86 84.52C788.3 84.0667 788.52 83.4867 788.52 82.78C788.52 81.8467 788.22 81.1867 787.62 80.8C787.033 80.4 786.127 80.2 784.9 80.2H784.38V78.32H784.92C786 78.3067 786.82 78.1267 787.38 77.78C787.953 77.4333 788.24 76.8867 788.24 76.14C788.24 75.5 788.033 74.9933 787.62 74.62C787.207 74.2333 786.62 74.04 785.86 74.04C785.113 74.04 784.533 74.2333 784.12 74.62C783.707 74.9933 783.46 75.46 783.38 76.02H781.16Z"
          fill="#595959"/>
    <line x1="-1.31134e-07" y1="78.5" x2="222" y2="78.5" stroke="#297F21" stroke-width="3"/>
    <line x1="270" y1="78.5" x2="492" y2="78.5" stroke="#297F21" stroke-width="3"/>
    <line x1="540" y1="78.5" x2="762" y2="78.5" stroke="#297F21" stroke-width="3"/>
    <line x1="810" y1="78.5" x2="1032" y2="78.5" stroke="#297F21" stroke-width="3"/>
</svg>
