<svg width="1032" height="104" viewBox="0 0 1032 104" fill="none" xmlns="http://www.w3.org/2000/svg">
<path d="M186.88 13.16H181.06L180.06 16H177.68L182.66 2.08H185.3L190.28 16H187.88L186.88 13.16ZM186.24 11.3L183.98 4.84L181.7 11.3H186.24ZM191.685 10.48C191.685 9.34667 191.912 8.35333 192.365 7.5C192.832 6.63333 193.472 5.96667 194.285 5.5C195.099 5.03333 196.032 4.8 197.085 4.8C198.419 4.8 199.519 5.12 200.385 5.76C201.265 6.38667 201.859 7.28667 202.165 8.46H199.705C199.505 7.91333 199.185 7.48667 198.745 7.18C198.305 6.87333 197.752 6.72 197.085 6.72C196.152 6.72 195.405 7.05333 194.845 7.72C194.299 8.37333 194.025 9.29333 194.025 10.48C194.025 11.6667 194.299 12.5933 194.845 13.26C195.405 13.9267 196.152 14.26 197.085 14.26C198.405 14.26 199.279 13.68 199.705 12.52H202.165C201.845 13.64 201.245 14.5333 200.365 15.2C199.485 15.8533 198.392 16.18 197.085 16.18C196.032 16.18 195.099 15.9467 194.285 15.48C193.472 15 192.832 14.3333 192.365 13.48C191.912 12.6133 191.685 11.6133 191.685 10.48ZM203.678 10.48C203.678 9.34667 203.904 8.35333 204.358 7.5C204.824 6.63333 205.464 5.96667 206.278 5.5C207.091 5.03333 208.024 4.8 209.078 4.8C210.411 4.8 211.511 5.12 212.378 5.76C213.258 6.38667 213.851 7.28667 214.158 8.46H211.698C211.498 7.91333 211.178 7.48667 210.738 7.18C210.298 6.87333 209.744 6.72 209.078 6.72C208.144 6.72 207.398 7.05333 206.838 7.72C206.291 8.37333 206.018 9.29333 206.018 10.48C206.018 11.6667 206.291 12.5933 206.838 13.26C207.398 13.9267 208.144 14.26 209.078 14.26C210.398 14.26 211.271 13.68 211.698 12.52H214.158C213.838 13.64 213.238 14.5333 212.358 15.2C211.478 15.8533 210.384 16.18 209.078 16.18C208.024 16.18 207.091 15.9467 206.278 15.48C205.464 15 204.824 14.3333 204.358 13.48C203.904 12.6133 203.678 11.6133 203.678 10.48ZM221.21 16.18C220.17 16.18 219.23 15.9467 218.39 15.48C217.55 15 216.89 14.3333 216.41 13.48C215.93 12.6133 215.69 11.6133 215.69 10.48C215.69 9.36 215.936 8.36667 216.43 7.5C216.923 6.63333 217.596 5.96667 218.45 5.5C219.303 5.03333 220.256 4.8 221.31 4.8C222.363 4.8 223.316 5.03333 224.17 5.5C225.023 5.96667 225.696 6.63333 226.19 7.5C226.683 8.36667 226.93 9.36 226.93 10.48C226.93 11.6 226.676 12.5933 226.17 13.46C225.663 14.3267 224.97 15 224.09 15.48C223.223 15.9467 222.263 16.18 221.21 16.18ZM221.21 14.2C221.796 14.2 222.343 14.06 222.85 13.78C223.37 13.5 223.79 13.08 224.11 12.52C224.43 11.96 224.59 11.28 224.59 10.48C224.59 9.68 224.436 9.00667 224.13 8.46C223.823 7.9 223.416 7.48 222.91 7.2C222.403 6.92 221.856 6.78 221.27 6.78C220.683 6.78 220.136 6.92 219.63 7.2C219.136 7.48 218.743 7.9 218.45 8.46C218.156 9.00667 218.01 9.68 218.01 10.48C218.01 11.6667 218.31 12.5867 218.91 13.24C219.523 13.88 220.29 14.2 221.21 14.2ZM239.164 4.98V16H236.884V14.7C236.524 15.1533 236.05 15.5133 235.464 15.78C234.89 16.0333 234.277 16.16 233.624 16.16C232.757 16.16 231.977 15.98 231.284 15.62C230.604 15.26 230.064 14.7267 229.664 14.02C229.277 13.3133 229.084 12.46 229.084 11.46V4.98H231.344V11.12C231.344 12.1067 231.59 12.8667 232.084 13.4C232.577 13.92 233.25 14.18 234.104 14.18C234.957 14.18 235.63 13.92 236.124 13.4C236.63 12.8667 236.884 12.1067 236.884 11.12V4.98H239.164ZM247.732 4.8C248.599 4.8 249.372 4.98 250.052 5.34C250.745 5.7 251.285 6.23333 251.672 6.94C252.059 7.64667 252.252 8.5 252.252 9.5V16H249.992V9.84C249.992 8.85333 249.745 8.1 249.252 7.58C248.759 7.04667 248.085 6.78 247.232 6.78C246.379 6.78 245.699 7.04667 245.192 7.58C244.699 8.1 244.452 8.85333 244.452 9.84V16H242.172V4.98H244.452V6.24C244.825 5.78667 245.299 5.43333 245.872 5.18C246.459 4.92667 247.079 4.8 247.732 4.8ZM257.82 6.84V12.94C257.82 13.3533 257.913 13.6533 258.1 13.84C258.3 14.0133 258.633 14.1 259.1 14.1H260.5V16H258.7C257.673 16 256.887 15.76 256.34 15.28C255.793 14.8 255.52 14.02 255.52 12.94V6.84H254.22V4.98H255.52V2.24H257.82V4.98H260.5V6.84H257.82ZM267.037 10.44C267.037 9.33333 267.264 8.35333 267.717 7.5C268.184 6.64667 268.81 5.98667 269.597 5.52C270.397 5.04 271.284 4.8 272.257 4.8C272.977 4.8 273.684 4.96 274.377 5.28C275.084 5.58667 275.644 6 276.057 6.52V1.2H278.357V16H276.057V14.34C275.684 14.8733 275.164 15.3133 274.497 15.66C273.844 16.0067 273.09 16.18 272.237 16.18C271.277 16.18 270.397 15.94 269.597 15.46C268.81 14.9667 268.184 14.2867 267.717 13.42C267.264 12.54 267.037 11.5467 267.037 10.44ZM276.057 10.48C276.057 9.72 275.897 9.06 275.577 8.5C275.27 7.94 274.864 7.51333 274.357 7.22C273.85 6.92667 273.304 6.78 272.717 6.78C272.13 6.78 271.584 6.92667 271.077 7.22C270.57 7.5 270.157 7.92 269.837 8.48C269.53 9.02667 269.377 9.68 269.377 10.44C269.377 11.2 269.53 11.8667 269.837 12.44C270.157 13.0133 270.57 13.4533 271.077 13.76C271.597 14.0533 272.144 14.2 272.717 14.2C273.304 14.2 273.85 14.0533 274.357 13.76C274.864 13.4667 275.27 13.04 275.577 12.48C275.897 11.9067 276.057 11.24 276.057 10.48ZM280.592 10.44C280.592 9.33333 280.818 8.35333 281.272 7.5C281.738 6.64667 282.365 5.98667 283.152 5.52C283.952 5.04 284.832 4.8 285.792 4.8C286.658 4.8 287.412 4.97333 288.052 5.32C288.705 5.65333 289.225 6.07333 289.612 6.58V4.98H291.912V16H289.612V14.36C289.225 14.88 288.698 15.3133 288.032 15.66C287.365 16.0067 286.605 16.18 285.752 16.18C284.805 16.18 283.938 15.94 283.152 15.46C282.365 14.9667 281.738 14.2867 281.272 13.42C280.818 12.54 280.592 11.5467 280.592 10.44ZM289.612 10.48C289.612 9.72 289.452 9.06 289.132 8.5C288.825 7.94 288.418 7.51333 287.912 7.22C287.405 6.92667 286.858 6.78 286.272 6.78C285.685 6.78 285.138 6.92667 284.632 7.22C284.125 7.5 283.712 7.92 283.392 8.48C283.085 9.02667 282.932 9.68 282.932 10.44C282.932 11.2 283.085 11.8667 283.392 12.44C283.712 13.0133 284.125 13.4533 284.632 13.76C285.152 14.0533 285.698 14.2 286.272 14.2C286.858 14.2 287.405 14.0533 287.912 13.76C288.418 13.4667 288.825 13.04 289.132 12.48C289.452 11.9067 289.612 11.24 289.612 10.48ZM297.566 6.84V12.94C297.566 13.3533 297.66 13.6533 297.846 13.84C298.046 14.0133 298.38 14.1 298.846 14.1H300.246V16H298.446C297.42 16 296.633 15.76 296.086 15.28C295.54 14.8 295.266 14.02 295.266 12.94V6.84H293.966V4.98H295.266V2.24H297.566V4.98H300.246V6.84H297.566ZM301.588 10.44C301.588 9.33333 301.814 8.35333 302.268 7.5C302.734 6.64667 303.361 5.98667 304.148 5.52C304.948 5.04 305.828 4.8 306.788 4.8C307.654 4.8 308.408 4.97333 309.048 5.32C309.701 5.65333 310.221 6.07333 310.608 6.58V4.98H312.908V16H310.608V14.36C310.221 14.88 309.694 15.3133 309.028 15.66C308.361 16.0067 307.601 16.18 306.748 16.18C305.801 16.18 304.934 15.94 304.148 15.46C303.361 14.9667 302.734 14.2867 302.268 13.42C301.814 12.54 301.588 11.5467 301.588 10.44ZM310.608 10.48C310.608 9.72 310.448 9.06 310.128 8.5C309.821 7.94 309.414 7.51333 308.908 7.22C308.401 6.92667 307.854 6.78 307.268 6.78C306.681 6.78 306.134 6.92667 305.628 7.22C305.121 7.5 304.708 7.92 304.388 8.48C304.081 9.02667 303.928 9.68 303.928 10.44C303.928 11.2 304.081 11.8667 304.388 12.44C304.708 13.0133 305.121 13.4533 305.628 13.76C306.148 14.0533 306.694 14.2 307.268 14.2C307.854 14.2 308.401 14.0533 308.908 13.76C309.414 13.4667 309.821 13.04 310.128 12.48C310.448 11.9067 310.608 11.24 310.608 10.48Z" fill="#595959"/>
<path d="M496.22 6.24C496.22 6.94667 496.053 7.61333 495.72 8.24C495.387 8.86667 494.853 9.38 494.12 9.78C493.387 10.1667 492.447 10.36 491.3 10.36H488.78V16H486.5V2.1H491.3C492.367 2.1 493.267 2.28667 494 2.66C494.747 3.02 495.3 3.51333 495.66 4.14C496.033 4.76667 496.22 5.46667 496.22 6.24ZM491.3 8.5C492.167 8.5 492.813 8.30667 493.24 7.92C493.667 7.52 493.88 6.96 493.88 6.24C493.88 4.72 493.02 3.96 491.3 3.96H488.78V8.5H491.3ZM500.675 6.58C501.008 6.02 501.448 5.58667 501.995 5.28C502.555 4.96 503.215 4.8 503.975 4.8V7.16H503.395C502.501 7.16 501.821 7.38667 501.355 7.84C500.901 8.29333 500.675 9.08 500.675 10.2V16H498.395V4.98H500.675V6.58ZM510.85 16.18C509.81 16.18 508.87 15.9467 508.03 15.48C507.19 15 506.53 14.3333 506.05 13.48C505.57 12.6133 505.33 11.6133 505.33 10.48C505.33 9.36 505.577 8.36667 506.07 7.5C506.564 6.63333 507.237 5.96667 508.09 5.5C508.944 5.03333 509.897 4.8 510.95 4.8C512.004 4.8 512.957 5.03333 513.81 5.5C514.664 5.96667 515.337 6.63333 515.83 7.5C516.324 8.36667 516.57 9.36 516.57 10.48C516.57 11.6 516.317 12.5933 515.81 13.46C515.304 14.3267 514.61 15 513.73 15.48C512.864 15.9467 511.904 16.18 510.85 16.18ZM510.85 14.2C511.437 14.2 511.984 14.06 512.49 13.78C513.01 13.5 513.43 13.08 513.75 12.52C514.07 11.96 514.23 11.28 514.23 10.48C514.23 9.68 514.077 9.00667 513.77 8.46C513.464 7.9 513.057 7.48 512.55 7.2C512.044 6.92 511.497 6.78 510.91 6.78C510.324 6.78 509.777 6.92 509.27 7.2C508.777 7.48 508.384 7.9 508.09 8.46C507.797 9.00667 507.65 9.68 507.65 10.48C507.65 11.6667 507.95 12.5867 508.55 13.24C509.164 13.88 509.93 14.2 510.85 14.2ZM523.444 6.84H521.404V16H519.104V6.84H517.804V4.98H519.104V4.2C519.104 2.93333 519.438 2.01333 520.104 1.44C520.784 0.853333 521.844 0.56 523.284 0.56V2.46C522.591 2.46 522.104 2.59333 521.824 2.86C521.544 3.11333 521.404 3.56 521.404 4.2V4.98H523.444V6.84ZM526.625 3.52C526.212 3.52 525.865 3.38 525.585 3.1C525.305 2.82 525.165 2.47333 525.165 2.06C525.165 1.64667 525.305 1.3 525.585 1.02C525.865 0.739999 526.212 0.599999 526.625 0.599999C527.025 0.599999 527.365 0.739999 527.645 1.02C527.925 1.3 528.065 1.64667 528.065 2.06C528.065 2.47333 527.925 2.82 527.645 3.1C527.365 3.38 527.025 3.52 526.625 3.52ZM527.745 4.98V16H525.465V4.98H527.745ZM533.018 1.2V16H530.738V1.2H533.018ZM546.112 10.22C546.112 10.6333 546.085 11.0067 546.032 11.34H537.612C537.678 12.22 538.005 12.9267 538.592 13.46C539.178 13.9933 539.898 14.26 540.752 14.26C541.978 14.26 542.845 13.7467 543.352 12.72H545.812C545.478 13.7333 544.872 14.5667 543.992 15.22C543.125 15.86 542.045 16.18 540.752 16.18C539.698 16.18 538.752 15.9467 537.912 15.48C537.085 15 536.432 14.3333 535.952 13.48C535.485 12.6133 535.252 11.6133 535.252 10.48C535.252 9.34667 535.478 8.35333 535.932 7.5C536.398 6.63333 537.045 5.96667 537.872 5.5C538.712 5.03333 539.672 4.8 540.752 4.8C541.792 4.8 542.718 5.02667 543.532 5.48C544.345 5.93333 544.978 6.57333 545.432 7.4C545.885 8.21333 546.112 9.15333 546.112 10.22ZM543.732 9.5C543.718 8.66 543.418 7.98667 542.832 7.48C542.245 6.97333 541.518 6.72 540.652 6.72C539.865 6.72 539.192 6.97333 538.632 7.48C538.072 7.97333 537.738 8.64667 537.632 9.5H543.732Z" fill="#595959"/>
<path d="M688.48 2.1V3.96H684.78V16H682.5V3.96H678.78V2.1H688.48ZM700.889 10.22C700.889 10.6333 700.862 11.0067 700.809 11.34H692.389C692.456 12.22 692.782 12.9267 693.369 13.46C693.956 13.9933 694.676 14.26 695.529 14.26C696.756 14.26 697.622 13.7467 698.129 12.72H700.589C700.256 13.7333 699.649 14.5667 698.769 15.22C697.902 15.86 696.822 16.18 695.529 16.18C694.476 16.18 693.529 15.9467 692.689 15.48C691.862 15 691.209 14.3333 690.729 13.48C690.262 12.6133 690.029 11.6133 690.029 10.48C690.029 9.34667 690.256 8.35333 690.709 7.5C691.176 6.63333 691.822 5.96667 692.649 5.5C693.489 5.03333 694.449 4.8 695.529 4.8C696.569 4.8 697.496 5.02667 698.309 5.48C699.122 5.93333 699.756 6.57333 700.209 7.4C700.662 8.21333 700.889 9.15333 700.889 10.22ZM698.509 9.5C698.496 8.66 698.196 7.98667 697.609 7.48C697.022 6.97333 696.296 6.72 695.429 6.72C694.642 6.72 693.969 6.97333 693.409 7.48C692.849 7.97333 692.516 8.64667 692.409 9.5H698.509ZM705.413 1.2V16H703.133V1.2H705.413ZM710.686 1.2V16H708.406V1.2H710.686ZM721.135 2.1V10.96C721.135 12.0133 721.408 12.8067 721.955 13.34C722.515 13.8733 723.288 14.14 724.275 14.14C725.275 14.14 726.048 13.8733 726.595 13.34C727.155 12.8067 727.435 12.0133 727.435 10.96V2.1H729.715V10.92C729.715 12.0533 729.468 13.0133 728.975 13.8C728.482 14.5867 727.822 15.1733 726.995 15.56C726.168 15.9467 725.255 16.14 724.255 16.14C723.255 16.14 722.342 15.9467 721.515 15.56C720.702 15.1733 720.055 14.5867 719.575 13.8C719.095 13.0133 718.855 12.0533 718.855 10.92V2.1H721.135ZM736.684 16.18C735.817 16.18 735.037 16.0267 734.344 15.72C733.664 15.4 733.124 14.9733 732.724 14.44C732.324 13.8933 732.11 13.2867 732.084 12.62H734.444C734.484 13.0867 734.704 13.48 735.104 13.8C735.517 14.1067 736.03 14.26 736.644 14.26C737.284 14.26 737.777 14.14 738.124 13.9C738.484 13.6467 738.664 13.3267 738.664 12.94C738.664 12.5267 738.464 12.22 738.064 12.02C737.677 11.82 737.057 11.6 736.204 11.36C735.377 11.1333 734.704 10.9133 734.184 10.7C733.664 10.4867 733.21 10.16 732.824 9.72C732.45 9.28 732.264 8.7 732.264 7.98C732.264 7.39333 732.437 6.86 732.784 6.38C733.13 5.88667 733.624 5.5 734.264 5.22C734.917 4.94 735.664 4.8 736.504 4.8C737.757 4.8 738.764 5.12 739.524 5.76C740.297 6.38667 740.71 7.24667 740.764 8.34H738.484C738.444 7.84667 738.244 7.45333 737.884 7.16C737.524 6.86667 737.037 6.72 736.424 6.72C735.824 6.72 735.364 6.83333 735.044 7.06C734.724 7.28667 734.564 7.58667 734.564 7.96C734.564 8.25333 734.67 8.5 734.884 8.7C735.097 8.9 735.357 9.06 735.664 9.18C735.97 9.28667 736.424 9.42667 737.024 9.6C737.824 9.81333 738.477 10.0333 738.984 10.26C739.504 10.4733 739.95 10.7933 740.324 11.22C740.697 11.6467 740.89 12.2133 740.904 12.92C740.904 13.5467 740.73 14.1067 740.384 14.6C740.037 15.0933 739.544 15.48 738.904 15.76C738.277 16.04 737.537 16.18 736.684 16.18ZM756.943 13.16H751.123L750.123 16H747.743L752.723 2.08H755.363L760.343 16H757.943L756.943 13.16ZM756.303 11.3L754.043 4.84L751.763 11.3H756.303ZM764.788 6.62C765.174 6.08667 765.701 5.65333 766.368 5.32C767.048 4.97333 767.801 4.8 768.628 4.8C769.601 4.8 770.481 5.03333 771.268 5.5C772.054 5.96667 772.674 6.63333 773.128 7.5C773.581 8.35333 773.808 9.33333 773.808 10.44C773.808 11.5467 773.581 12.54 773.128 13.42C772.674 14.2867 772.048 14.9667 771.248 15.46C770.461 15.94 769.588 16.18 768.628 16.18C767.774 16.18 767.014 16.0133 766.348 15.68C765.694 15.3467 765.174 14.92 764.788 14.4V16H762.508V1.2H764.788V6.62ZM771.488 10.44C771.488 9.68 771.328 9.02667 771.008 8.48C770.701 7.92 770.288 7.5 769.768 7.22C769.261 6.92667 768.714 6.78 768.128 6.78C767.554 6.78 767.008 6.92667 766.488 7.22C765.981 7.51333 765.568 7.94 765.248 8.5C764.941 9.06 764.788 9.72 764.788 10.48C764.788 11.24 764.941 11.9067 765.248 12.48C765.568 13.04 765.981 13.4667 766.488 13.76C767.008 14.0533 767.554 14.2 768.128 14.2C768.714 14.2 769.261 14.0533 769.768 13.76C770.288 13.4533 770.701 13.0133 771.008 12.44C771.328 11.8667 771.488 11.2 771.488 10.44ZM780.843 16.18C779.803 16.18 778.863 15.9467 778.023 15.48C777.183 15 776.523 14.3333 776.043 13.48C775.563 12.6133 775.323 11.6133 775.323 10.48C775.323 9.36 775.569 8.36667 776.063 7.5C776.556 6.63333 777.229 5.96667 778.083 5.5C778.936 5.03333 779.889 4.8 780.943 4.8C781.996 4.8 782.949 5.03333 783.803 5.5C784.656 5.96667 785.329 6.63333 785.823 7.5C786.316 8.36667 786.563 9.36 786.563 10.48C786.563 11.6 786.309 12.5933 785.803 13.46C785.296 14.3267 784.603 15 783.723 15.48C782.856 15.9467 781.896 16.18 780.843 16.18ZM780.843 14.2C781.429 14.2 781.976 14.06 782.483 13.78C783.003 13.5 783.423 13.08 783.743 12.52C784.063 11.96 784.223 11.28 784.223 10.48C784.223 9.68 784.069 9.00667 783.763 8.46C783.456 7.9 783.049 7.48 782.543 7.2C782.036 6.92 781.489 6.78 780.903 6.78C780.316 6.78 779.769 6.92 779.263 7.2C778.769 7.48 778.376 7.9 778.083 8.46C777.789 9.00667 777.643 9.68 777.643 10.48C777.643 11.6667 777.943 12.5867 778.543 13.24C779.156 13.88 779.923 14.2 780.843 14.2ZM798.796 4.98V16H796.516V14.7C796.156 15.1533 795.683 15.5133 795.096 15.78C794.523 16.0333 793.91 16.16 793.256 16.16C792.39 16.16 791.61 15.98 790.916 15.62C790.236 15.26 789.696 14.7267 789.296 14.02C788.91 13.3133 788.716 12.46 788.716 11.46V4.98H790.976V11.12C790.976 12.1067 791.223 12.8667 791.716 13.4C792.21 13.92 792.883 14.18 793.736 14.18C794.59 14.18 795.263 13.92 795.756 13.4C796.263 12.8667 796.516 12.1067 796.516 11.12V4.98H798.796ZM804.465 6.84V12.94C804.465 13.3533 804.558 13.6533 804.745 13.84C804.945 14.0133 805.278 14.1 805.745 14.1H807.145V16H805.345C804.318 16 803.531 15.76 802.985 15.28C802.438 14.8 802.165 14.02 802.165 12.94V6.84H800.865V4.98H802.165V2.24H804.465V4.98H807.145V6.84H804.465ZM824.741 2.1L820.141 10.96V16H817.861V10.96L813.241 2.1H815.781L819.001 8.92L822.221 2.1H824.741ZM831.331 16.18C830.291 16.18 829.351 15.9467 828.511 15.48C827.671 15 827.011 14.3333 826.531 13.48C826.051 12.6133 825.811 11.6133 825.811 10.48C825.811 9.36 826.057 8.36667 826.551 7.5C827.044 6.63333 827.717 5.96667 828.571 5.5C829.424 5.03333 830.377 4.8 831.431 4.8C832.484 4.8 833.437 5.03333 834.291 5.5C835.144 5.96667 835.817 6.63333 836.311 7.5C836.804 8.36667 837.051 9.36 837.051 10.48C837.051 11.6 836.797 12.5933 836.291 13.46C835.784 14.3267 835.091 15 834.211 15.48C833.344 15.9467 832.384 16.18 831.331 16.18ZM831.331 14.2C831.917 14.2 832.464 14.06 832.971 13.78C833.491 13.5 833.911 13.08 834.231 12.52C834.551 11.96 834.711 11.28 834.711 10.48C834.711 9.68 834.557 9.00667 834.251 8.46C833.944 7.9 833.537 7.48 833.031 7.2C832.524 6.92 831.977 6.78 831.391 6.78C830.804 6.78 830.257 6.92 829.751 7.2C829.257 7.48 828.864 7.9 828.571 8.46C828.277 9.00667 828.131 9.68 828.131 10.48C828.131 11.6667 828.431 12.5867 829.031 13.24C829.644 13.88 830.411 14.2 831.331 14.2ZM849.285 4.98V16H847.005V14.7C846.645 15.1533 846.171 15.5133 845.585 15.78C845.011 16.0333 844.398 16.16 843.745 16.16C842.878 16.16 842.098 15.98 841.405 15.62C840.725 15.26 840.185 14.7267 839.785 14.02C839.398 13.3133 839.205 12.46 839.205 11.46V4.98H841.465V11.12C841.465 12.1067 841.711 12.8667 842.205 13.4C842.698 13.92 843.371 14.18 844.225 14.18C845.078 14.18 845.751 13.92 846.245 13.4C846.751 12.8667 847.005 12.1067 847.005 11.12V4.98H849.285ZM854.573 6.58C854.906 6.02 855.346 5.58667 855.893 5.28C856.453 4.96 857.113 4.8 857.873 4.8V7.16H857.293C856.4 7.16 855.72 7.38667 855.253 7.84C854.8 8.29333 854.573 9.08 854.573 10.2V16H852.293V4.98H854.573V6.58ZM863.969 16.18C863.102 16.18 862.322 16.0267 861.629 15.72C860.949 15.4 860.409 14.9733 860.009 14.44C859.609 13.8933 859.395 13.2867 859.369 12.62H861.729C861.769 13.0867 861.989 13.48 862.389 13.8C862.802 14.1067 863.315 14.26 863.929 14.26C864.569 14.26 865.062 14.14 865.409 13.9C865.769 13.6467 865.949 13.3267 865.949 12.94C865.949 12.5267 865.749 12.22 865.349 12.02C864.962 11.82 864.342 11.6 863.489 11.36C862.662 11.1333 861.989 10.9133 861.469 10.7C860.949 10.4867 860.495 10.16 860.109 9.72C859.735 9.28 859.549 8.7 859.549 7.98C859.549 7.39333 859.722 6.86 860.069 6.38C860.415 5.88667 860.909 5.5 861.549 5.22C862.202 4.94 862.949 4.8 863.789 4.8C865.042 4.8 866.049 5.12 866.809 5.76C867.582 6.38667 867.995 7.24667 868.049 8.34H865.769C865.729 7.84667 865.529 7.45333 865.169 7.16C864.809 6.86667 864.322 6.72 863.709 6.72C863.109 6.72 862.649 6.83333 862.329 7.06C862.009 7.28667 861.849 7.58667 861.849 7.96C861.849 8.25333 861.955 8.5 862.169 8.7C862.382 8.9 862.642 9.06 862.949 9.18C863.255 9.28667 863.709 9.42667 864.309 9.6C865.109 9.81333 865.762 10.0333 866.269 10.26C866.789 10.4733 867.235 10.7933 867.609 11.22C867.982 11.6467 868.175 12.2133 868.189 12.92C868.189 13.5467 868.015 14.1067 867.669 14.6C867.322 15.0933 866.829 15.48 866.189 15.76C865.562 16.04 864.822 16.18 863.969 16.18ZM880.752 10.22C880.752 10.6333 880.726 11.0067 880.672 11.34H872.252C872.319 12.22 872.646 12.9267 873.232 13.46C873.819 13.9933 874.539 14.26 875.392 14.26C876.619 14.26 877.486 13.7467 877.992 12.72H880.452C880.119 13.7333 879.512 14.5667 878.632 15.22C877.766 15.86 876.686 16.18 875.392 16.18C874.339 16.18 873.392 15.9467 872.552 15.48C871.726 15 871.072 14.3333 870.592 13.48C870.126 12.6133 869.892 11.6133 869.892 10.48C869.892 9.34667 870.119 8.35333 870.572 7.5C871.039 6.63333 871.686 5.96667 872.512 5.5C873.352 5.03333 874.312 4.8 875.392 4.8C876.432 4.8 877.359 5.02667 878.172 5.48C878.986 5.93333 879.619 6.57333 880.072 7.4C880.526 8.21333 880.752 9.15333 880.752 10.22ZM878.372 9.5C878.359 8.66 878.059 7.98667 877.472 7.48C876.886 6.97333 876.159 6.72 875.292 6.72C874.506 6.72 873.832 6.97333 873.272 7.48C872.712 7.97333 872.379 8.64667 872.272 9.5H878.372ZM885.276 1.2V16H882.996V1.2H885.276ZM892.89 6.84H890.85V16H888.55V6.84H887.25V4.98H888.55V4.2C888.55 2.93333 888.883 2.01333 889.55 1.44C890.23 0.853333 891.29 0.56 892.73 0.56V2.46C892.036 2.46 891.55 2.59333 891.27 2.86C890.99 3.11333 890.85 3.56 890.85 4.2V4.98H892.89V6.84Z" fill="#595959"/>
<circle cx="516" cy="80" r="22" stroke="#297F21" stroke-width="4"/>
<circle cx="786" cy="80" r="22" stroke="#297F21" stroke-width="4"/>
<path d="M512.46 83.9C513.74 82.7933 514.747 81.8867 515.48 81.18C516.227 80.46 516.847 79.7133 517.34 78.94C517.833 78.1667 518.08 77.3933 518.08 76.62C518.08 75.82 517.887 75.1933 517.5 74.74C517.127 74.2867 516.533 74.06 515.72 74.06C514.933 74.06 514.32 74.3133 513.88 74.82C513.453 75.3133 513.227 75.98 513.2 76.82H511C511.04 75.3 511.493 74.14 512.36 73.34C513.24 72.5267 514.353 72.12 515.7 72.12C517.153 72.12 518.287 72.52 519.1 73.32C519.927 74.12 520.34 75.1867 520.34 76.52C520.34 77.48 520.093 78.4067 519.6 79.3C519.12 80.18 518.54 80.9733 517.86 81.68C517.193 82.3733 516.34 83.18 515.3 84.1L514.4 84.9H520.74V86.8H511.02V85.14L512.46 83.9Z" fill="#595959"/>
<path d="M781.16 76.02C781.24 74.78 781.713 73.8133 782.58 73.12C783.46 72.4267 784.58 72.08 785.94 72.08C786.873 72.08 787.68 72.2467 788.36 72.58C789.04 72.9133 789.553 73.3667 789.9 73.94C790.247 74.5133 790.42 75.16 790.42 75.88C790.42 76.7067 790.2 77.4133 789.76 78C789.32 78.5867 788.793 78.98 788.18 79.18V79.26C788.967 79.5 789.58 79.94 790.02 80.58C790.46 81.2067 790.68 82.0133 790.68 83C790.68 83.7867 790.5 84.4867 790.14 85.1C789.78 85.7133 789.247 86.2 788.54 86.56C787.833 86.9067 786.987 87.08 786 87.08C784.56 87.08 783.373 86.7133 782.44 85.98C781.52 85.2333 781.027 84.1667 780.96 82.78H783.16C783.213 83.4867 783.487 84.0667 783.98 84.52C784.473 84.96 785.14 85.18 785.98 85.18C786.793 85.18 787.42 84.96 787.86 84.52C788.3 84.0667 788.52 83.4867 788.52 82.78C788.52 81.8467 788.22 81.1867 787.62 80.8C787.033 80.4 786.127 80.2 784.9 80.2H784.38V78.32H784.92C786 78.3067 786.82 78.1267 787.38 77.78C787.953 77.4333 788.24 76.8867 788.24 76.14C788.24 75.5 788.033 74.9933 787.62 74.62C787.207 74.2333 786.62 74.04 785.86 74.04C785.113 74.04 784.533 74.2333 784.12 74.62C783.707 74.9933 783.46 75.46 783.38 76.02H781.16Z" fill="#595959"/>
<line x1="-1.31134e-07" y1="78.5" x2="222" y2="78.5" stroke="#297F21" stroke-width="3"/>
<line x1="270" y1="78.5" x2="492" y2="78.5" stroke="#297F21" stroke-width="3"/>
<line x1="810" y1="78.5" x2="1032" y2="78.5" stroke="#297F21" stroke-width="3"/>
<circle cx="246" cy="80" r="22" fill="#297F21" stroke="#297F21" stroke-width="4"/>
<path d="M236.664 81.3335L241.366 85.095C242.469 85.9775 244.069 85.8466 245.014 84.7966L255.331 73.3335" stroke="white" stroke-width="1.5" stroke-linecap="round" stroke-linejoin="round"/>
</svg>
